<svg xmlns="http://www.w3.org/2000/svg" viewBox="0 0 256 256" fill="none">
  <defs>
    <linearGradient id="spark_grad" x1="24" y1="24" x2="232" y2="232" gradientUnits="userSpaceOnUse">
      <stop offset="0%" stop-color="#2563EB"/> <!-- Blue-600 -->
      <stop offset="50%" stop-color="#0EA5E9"/> <!-- Sky-500 -->
      <stop offset="100%" stop-color="#06B6D4"/> <!-- Cyan-500 -->
    </linearGradient>
    <filter id="glow" x="-20%" y="-20%" width="140%" height="140%">
      <feGaussianBlur stdDeviation="10" result="blur"/>
      <feComposite in="SourceGraphic" in2="blur" operator="over"/>
    </filter>
  </defs>
  
  <!-- 主体气泡 -->
  <path d="M128 32C72.8 32 28 73.2 28 124C28 148.4 39.6 170.6 58.8 186.2L46 224L90.6 205.8C102.2 209.8 114.8 212 128 212C183.2 212 228 170.8 228 120C228 73.2 183.2 32 128 32Z" fill="url(#spark_grad)"/>
  
  <!-- 内部 AI 光标 -->
  <path d="M128 72L140 108L176 120L140 132L128 168L116 132L80 120L116 108L128 72Z" fill="white"/>
</svg>
